<?xml version="1.0" encoding="utf-8"?>
<!-- Generator: Adobe Illustrator 15.0.2, SVG Export Plug-In  -->
<!DOCTYPE svg PUBLIC "-//W3C//DTD SVG 1.1//EN" "http://www.w3.org/Graphics/SVG/1.1/DTD/svg11.dtd" [
	<!ENTITY ns_flows "http://ns.adobe.com/Flows/1.0/">
]>
<svg version="1.1"
	 xmlns="http://www.w3.org/2000/svg" xmlns:xlink="http://www.w3.org/1999/xlink" xmlns:a="http://ns.adobe.com/AdobeSVGViewerExtensions/3.0/"
	 x="0px" y="0px" width="208px" height="303px" viewBox="-0.062 -0.062 208 303" enable-background="new -0.062 -0.062 208 303"
	 xml:space="preserve">
<defs>
</defs>
<path id="path5_1_" fill="#FFFFFF" stroke="#000000" stroke-width="0.4993" d="M207.628,294.05c0,4.715-3.842,8.578-8.553,8.578
	H8.792c-4.699,0-8.542-3.863-8.542-8.578V8.828c0-4.714,3.843-8.579,8.542-8.579h190.284c4.711,0,8.553,3.865,8.553,8.579V294.05
	L207.628,294.05z"/>
<path id="rect12008_1_" fill="none" stroke="#F7AD00" stroke-width="1.1495" d="M12.425,5.266h183.027
	c3.713,0,6.723,3.019,6.723,6.742v278.861c0,3.724-3.01,6.741-6.723,6.741H12.425c-3.712,0-6.722-3.018-6.722-6.741V12.008
	C5.703,8.285,8.712,5.266,12.425,5.266z"/>
<path id="rect12010_1_" fill="#7F0000" d="M14.751,10.524h178.375c2.309,0,4.179,1.876,4.179,4.191v273.446
	c0,2.314-1.87,4.191-4.179,4.191H14.751c-2.308,0-4.179-1.877-4.179-4.191V14.715C10.572,12.401,12.443,10.524,14.751,10.524z"/>
<polygon fill="#FFFFFF" stroke="#F7AD00" stroke-width="0.8899" stroke-miterlimit="10" points="103.938,70.757 130.153,123.875
	188.772,132.393 146.355,173.739 156.369,232.12 103.938,204.557 51.508,232.12 61.521,173.739 19.104,132.393 77.724,123.875 "/>
</svg>
